<svg version="1" xmlns="http://www.w3.org/2000/svg" width="260.7" height="139.9" viewBox="0 0 260.7 139.9"><style type="text/css"><![CDATA[
	.st0{fill:#F1F2F2;}
	.st1{fill:#989898;}
	.st2{fill:#CDCCCC;}
	.st3{fill:#3EA756;}
]]></style><path class="st3" d="M0 0v123.80000000000001s72.6 33.7 149.8 0c0 0 48.7-23 110.9-5.4v-118.4h-260.7z"/><path class="st0" d="M103 102.7s-29.7 23.2-43.1-11c0 0-11.4-37.1 17-56 0 0 24.4-6.7 26-16.2 0 0 20.6 32.6-20 54.6 0 0-22.7 13.1-9.7 28.7.1-.1 2.7 10.7 29.8-.1zM10.5 24h.7c2.2.5 3.3 1.4 3.3 2.9v22.3c4.7-4 9.7-6.1 15-6.1 8.1 0 14.6 3.8 19.5 11.5 1.8 3.4 2.8 6.6 2.8 9.7v25.6c0 1.8-1.2 2.9-3.5 3.3h-.1c-1.7 0-2.9-1.1-3.5-3.3v-24.4c0-6.6-3.4-11.3-10.2-14.2-1.6-.5-3.3-.7-4.9-.7-6.8 0-11.5 3.6-14.3 10.8-.5 1.6-.7 4.1-.7 7.7v21c0 1.8-1.2 2.9-3.5 3.3h-.1c-1.7 0-2.9-1.1-3.5-3.3v-62.7c.4-2.2 1.4-3.4 3-3.4zM115.9 43.3c2.3.6 3.5 1.6 3.5 3.1v4c5.3-4.7 11-7.1 17.1-7.1 3.3 0 6.7.8 10.4 2.4 1 1 1.4 2 1.4 2.9v.2c-.4 2.3-1.5 3.4-3.4 3.4h-.2c-3.3-1.1-5.8-1.6-7.5-1.6h-1.1c-7.1 0-12.4 3.7-15.7 11.1-.7 2-1.1 4.2-1.1 6.7v21.5c0 1.8-1.2 2.9-3.5 3.3h-.2c-1.8 0-3-1.2-3.4-3.6v-42.1c.4-2.8 1.6-4.2 3.7-4.2zM159.1 23.9h.5c2.2.5 3.3 1.5 3.3 3.1v23.8c5.3-5.1 11.3-7.7 18-7.7 6.4 0 12.3 2.4 17.5 7.3 5 5.3 7.5 11.2 7.5 17.7 0 9.4-4.5 16.8-13.4 22.2-3.8 1.9-7.6 2.9-11.1 2.9h-1.4c-6.7 0-13-3.2-18.8-9.5-3.6-4.7-5.3-10.4-5.3-16.8v-39.8c-.1-1.6 1-2.7 3.2-3.2zm3.8 43.7v.9c0 7.5 3.9 13 11.7 16.6 2.1.6 4 .9 5.7.9h1.1c7.3 0 12.7-3.9 16.5-11.7.6-2.4.9-4.2.9-5.5v-1.1c0-7.4-4-13-11.9-16.6-2.4-.6-4.3-.9-5.7-.9h-.7c-7.3 0-12.7 3.8-16.5 11.5-.7 2.2-1.1 4.2-1.1 5.9zM233.4 44c8.3 0 14.8 3.8 19.6 11.3l.2 1.4v.2c0 1.9-1.2 3-3.6 3.4-1.6 0-3.2-1.4-4.8-4.1-3.3-3.2-7.1-4.8-11.3-4.8-5.5 0-9.9 2.6-13.1 7.9l-.1.9c0 1.6 1.8 2.5 5.4 2.9 13.7 3.3 21.3 5.2 22.6 5.7 3.5 2.3 5.2 5.1 5.2 8.6v.1c0 5-3.6 9.5-10.9 13.7-3.1 1.4-6.5 2.1-10 2.1-7.3 0-13.4-3.4-18.4-10.2-.5-.7-.7-1.4-.7-2v-1.1c0-1.7 1.3-2.8 4-3 1.1 0 2.7 1.5 4.8 4.5 3.2 3 6.9 4.5 11.1 4.5 5 0 9.2-2.4 12.5-7.2l.3-1.1v-.2c0-1.5-1.1-2.4-3.2-2.7-16-3.6-24.5-5.8-25.5-6.6-3-2.3-4.5-5-4.5-8.2 0-4.5 3.3-8.9 9.8-13.1 3.5-1.9 7-2.9 10.6-2.9z"/><rect x="-359.9" y="104.2" class="st3" width="46.1" height="11.4"/><rect x="-254.5" y="116" class="st2" width="46.1" height="11.4"/><rect x="-254.5" y="104.3" class="st1" width="46.1" height="11.4"/></svg>