<?xml version="1.0" encoding="utf-8"?>
<!-- Generator: Adobe Illustrator 16.0.0, SVG Export Plug-In . SVG Version: 6.00 Build 0)  -->
<!DOCTYPE svg PUBLIC "-//W3C//DTD SVG 1.0//EN" "http://www.w3.org/TR/2001/REC-SVG-20010904/DTD/svg10.dtd">
<svg version="1.0" id="Layer_1" xmlns="http://www.w3.org/2000/svg" xmlns:xlink="http://www.w3.org/1999/xlink" x="0px" y="0px"
	 width="343.46px" height="185.09px" viewBox="0 0 343.46 185.09" style="enable-background:new 0 0 343.46 185.09;"
	 xml:space="preserve">
<style type="text/css">
<![CDATA[
	.st0{fill:#8DA13E;}
	.st1{fill:#231F20;}
	.st2{fill:#FFFFFF;}
]]>
</style>
<g>
	<path class="st2" d="M1.63,1.38v156.27v5.71c0,0,94.74,44.18,195.4,0c0,0,63.45-30.14,144.6-7.1V1.38H1.63z"/>
	<path class="st1" d="M101.63,184.74c-57.61,0-100.31-19.6-100.73-19.8l-1-0.47V-0.35h343.46v158.91l-2.2-0.63
		c-20.12-5.71-40.93-8.61-61.82-8.61c-48.15,0-81.23,15.45-81.56,15.61C167.82,178.08,135.48,184.74,101.63,184.74z M3.36,162.25
		c6.7,2.9,46.31,19.03,98.27,19.03c33.37,0,65.24-6.56,94.7-19.49c0.29-0.14,34.08-15.92,83-15.92c20.46,0,40.82,2.73,60.56,8.13
		V3.12H3.36V162.25z"/>
</g>
<g>
	<g>
		<path class="st0" d="M139.61,131.13c0,0-34.8,27.18-50.44-12.9c0,0-13.29-43.48,19.94-65.57c0,0,28.54-7.81,30.5-19.02
			c0,0,24.14,38.12-23.46,63.86c0,0-26.59,15.29-11.34,33.63C104.81,131.13,107.94,143.71,139.61,131.13z"/>
	</g>
	<g>
		<path class="st0" d="M31.35,38.95h0.85c2.57,0.53,3.85,1.66,3.85,3.4v26.13c5.48-4.72,11.33-7.09,17.57-7.09
			c9.52,0,17.13,4.5,22.84,13.49c2.15,4.01,3.23,7.79,3.23,11.33v29.93c0,2.11-1.36,3.4-4.08,3.85h-0.17c-2.04,0-3.4-1.29-4.08-3.85
			V87.47c0-7.71-3.98-13.26-11.96-16.67c-1.93-0.56-3.85-0.85-5.78-0.85c-7.93,0-13.5,4.21-16.72,12.64
			c-0.56,1.82-0.85,4.8-0.85,8.96v24.6c0,2.12-1.36,3.4-4.08,3.85H31.8c-2.04,0-3.4-1.29-4.08-3.85V42.98
			C28.28,40.3,29.49,38.95,31.35,38.95z"/>
	</g>
	<g>
		<path class="st0" d="M154.77,61.57c2.72,0.68,4.08,1.89,4.08,3.63v4.7c6.24-5.55,12.9-8.33,20-8.33c3.82,0,7.88,0.92,12.19,2.77
			c1.13,1.17,1.69,2.3,1.69,3.4v0.23c-0.46,2.68-1.8,4.02-4.03,4.02h-0.23c-3.89-1.25-6.82-1.87-8.78-1.87h-1.25
			c-8.34,0-14.46,4.32-18.35,12.98c-0.83,2.31-1.25,4.93-1.25,7.88v25.16c0,2.12-1.36,3.4-4.08,3.86h-0.22
			c-2.15,0-3.5-1.42-4.02-4.25V66.49C150.86,63.21,152.28,61.57,154.77,61.57z"/>
	</g>
	<g>
		<path class="st0" d="M205.32,38.84h0.62c2.57,0.57,3.86,1.8,3.86,3.69v27.82c6.23-6.01,13.24-9.01,21.03-9.01
			c7.51,0,14.35,2.85,20.51,8.56c5.85,6.16,8.78,13.07,8.78,20.74c0,10.99-5.21,19.65-15.64,25.96c-4.5,2.26-8.84,3.4-13.04,3.4
			h-1.69c-7.9,0-15.24-3.71-22.04-11.11c-4.16-5.55-6.24-12.12-6.24-19.72V42.53C201.46,40.64,202.75,39.4,205.32,38.84z
			 M209.79,90.01v1.08c0,8.73,4.57,15.22,13.71,19.49c2.46,0.71,4.67,1.08,6.63,1.08h1.3c8.51,0,14.92-4.57,19.27-13.72
			c0.72-2.76,1.08-4.89,1.08-6.4v-1.31c0-8.68-4.65-15.18-13.94-19.49c-2.83-0.72-5.05-1.08-6.63-1.08h-0.85
			c-8.5,0-14.92,4.49-19.26,13.49C210.23,85.69,209.79,87.98,209.79,90.01z"/>
	</g>
	<g>
		<path class="st0" d="M292.25,62.36c9.71,0,17.35,4.4,22.89,13.21l0.18,1.64v0.23c0,2.23-1.4,3.55-4.2,3.97
			c-1.86,0-3.74-1.61-5.67-4.82c-3.89-3.78-8.29-5.67-13.2-5.67c-6.46,0-11.56,3.08-15.3,9.24l-0.17,1.08c0,1.85,2.1,2.97,6.29,3.34
			c16.09,3.89,24.9,6.12,26.41,6.69c4.04,2.65,6.06,6,6.06,10.08v0.17c0,5.82-4.27,11.15-12.81,15.98
			c-3.66,1.66-7.58,2.49-11.73,2.49c-8.5,0-15.69-3.98-21.59-11.95c-0.56-0.83-0.85-1.61-0.85-2.33v-1.25
			c0-2.04,1.55-3.23,4.65-3.56c1.32,0,3.21,1.75,5.66,5.26c3.74,3.48,8.07,5.22,12.97,5.22c5.9,0,10.79-2.8,14.68-8.39l0.39-1.25
			v-0.23c0-1.81-1.24-2.85-3.74-3.11c-18.78-4.19-28.71-6.78-29.8-7.76c-3.48-2.64-5.21-5.86-5.21-9.63c0-5.29,3.83-10.39,11.5-15.3
			C283.91,63.47,288.09,62.36,292.25,62.36z"/>
	</g>
</g>
</svg>
