<?xml version="1.0" encoding="utf-8"?>
<!-- Generator: Adobe Illustrator 16.0.0, SVG Export Plug-In . SVG Version: 6.00 Build 0)  -->
<!DOCTYPE svg PUBLIC "-//W3C//DTD SVG 1.0//EN" "http://www.w3.org/TR/2001/REC-SVG-20010904/DTD/svg10.dtd">
<svg version="1.0" id="Layer_1" xmlns="http://www.w3.org/2000/svg" xmlns:xlink="http://www.w3.org/1999/xlink" x="0px" y="0px"
	 width="256px" height="256px" viewBox="0 0 256 256" style="enable-background:new 0 0 256 256;" xml:space="preserve">
<style type="text/css">
<![CDATA[
	.st0{fill:#8CA03D;}
	.st1{fill:#FFFFFF;}
]]>
</style>
<path class="st0" d="M255.38,128c0,70.36-57.03,127.38-127.38,127.38C57.65,255.38,0.62,198.36,0.62,128
	C0.62,57.65,57.65,0.62,128,0.62C198.35,0.62,255.38,57.65,255.38,128z"/>
<path class="st1" d="M180.58,144.24c10.2-15.7,13.9-33.4,11.3-53.2c-2.3-16-10.5-28.1-24.4-36.4c-13.9-8.3-29.9-11.4-47.9-9.4
	c-14.6,1.8-27.5,8-38.8,18.6c-11.3,10.6-17.1,23.6-17.4,39c-0.9,21.8,6.8,34.6,23.1,38.4c2-3.2,3.1-6.2,3.1-8.9
	c0-2.8-0.4-4.9-1.3-6.3c-0.9-1.5-2-3.3-3.3-5.7c-1.3-2.3-2.3-4.6-2.8-7c-1.5-9.9,0.4-19.2,5.4-27.9c5.1-8.7,11.8-15.3,20-19.6
	c8.3-4.4,17.4-6.2,27.2-5.4c9.9,0.7,18.3,4.6,25.3,11.5c4.6,4.9,7.5,12.1,8.7,21.6c1.2,9.4,0.6,18.5-1.7,27
	c-2.3,8.6-6.5,15.8-12.4,21.6c-6,5.8-12.7,8-20.3,6.5c-5.8-1.2-9.3-3.9-10.5-8.3c-1.2-4.4-0.9-9.4,0.9-15c1.7-5.7,3.6-11.3,5.4-17
	c1.9-5.7,2.6-10.9,2.2-15.7c-0.4-4.8-3-8.1-7.6-9.8c-6.4-2.6-11.9-1.5-16.6,3.3c-4.6,4.8-7.3,10.7-7.8,17.6
	c-0.6,7,0.4,13.4,3.1,19.2c-0.9,4.9-2.5,11.8-4.8,20.7c-2.3,8.9-4.1,15.8-5.2,20.9c-1.2,5.1-2.3,12.5-3.5,22.2
	c-1.2,9.7-0.9,17.9,0.9,24.6c7.3-5.2,12.6-12.4,16.1-21.6c3.5-9.2,6.7-20.7,9.6-34.6c0.6,0.3,2.6,1.7,6.1,4.1
	c3.5,2.5,6.2,4.1,8.3,4.8c2,0.7,4.6,1.2,7.8,1.5C156.48,167.04,170.38,159.94,180.58,144.24z"/>
</svg>
