<svg version="1" xmlns="http://www.w3.org/2000/svg" width="256" height="256" viewBox="0 0 256 256"><style type="text/css"><![CDATA[
	.st0{fill:#CCCBCB;}
]]></style><path class="st0" d="M128 .6c-70.4 0-127.4 57-127.4 127.4s57 127.4 127.4 127.4 127.4-57 127.4-127.4-57-127.4-127.4-127.4zm52.6 143.6c-10.2 15.7-24.1 22.8-41.8 21.3-3.2-.3-5.8-.8-7.8-1.5-2.1-.7-4.8-2.3-8.3-4.8-3.5-2.4-5.5-3.8-6.1-4.1-2.9 13.9-6.1 25.4-9.6 34.6s-8.8 16.4-16.1 21.6c-1.8-6.7-2.1-14.9-.9-24.6s2.3-17.1 3.5-22.2c1.1-5.1 2.9-12 5.2-20.9 2.3-8.9 3.9-15.8 4.8-20.7-2.7-5.8-3.7-12.2-3.1-19.2.5-6.9 3.2-12.8 7.8-17.6 4.7-4.8 10.2-5.9 16.6-3.3 4.6 1.7 7.2 5 7.6 9.8.4 4.8-.3 10-2.2 15.7-1.8 5.7-3.7 11.3-5.4 17-1.8 5.6-2.1 10.6-.9 15 1.2 4.4 4.7 7.1 10.5 8.3 7.6 1.5 14.3-.7 20.3-6.5 5.9-5.8 10.1-13 12.4-21.6 2.3-8.5 2.9-17.6 1.7-27-1.2-9.5-4.1-16.7-8.7-21.6-7-6.9-15.4-10.8-25.3-11.5-9.8-.8-18.9 1-27.2 5.4-8.2 4.3-14.9 10.9-20 19.6-5 8.7-6.9 18-5.4 27.9.5 2.4 1.5 4.7 2.8 7 1.3 2.4 2.4 4.2 3.3 5.7.9 1.4 1.3 3.5 1.3 6.3 0 2.7-1.1 5.7-3.1 8.9-16.3-3.8-24-16.6-23.1-38.4.3-15.4 6.1-28.4 17.4-39 11.3-10.6 24.2-16.8 38.8-18.6 18-2 34 1.1 47.9 9.4 13.9 8.3 22.1 20.4 24.4 36.4 2.6 19.8-1.1 37.5-11.3 53.2z"/></svg>