<svg version="1" xmlns="http://www.w3.org/2000/svg" width="256" height="256" viewBox="0 0 256 256"><style type="text/css"><![CDATA[
	.st0{fill:#CCCBCB;}
]]></style><path class="st0" d="M128 .6c-70.4 0-127.4 57-127.4 127.4s57 127.4 127.4 127.4 127.4-57 127.4-127.4-57-127.4-127.4-127.4zm65.7 93.2v4.4c0 11.6-2.1 23.1-6.4 34.6-4.3 11.6-10.3 22.1-18.1 31.6s-17.9 17.2-30.4 23.1-26.2 8.8-41.2 8.8c-18.8 0-36.1-5.2-51.9-15.7 2.6.3 5.3.4 8 .4 15.8 0 29.9-4.9 42.2-14.5-7.5-.2-14.1-2.6-19.9-7s-9.8-10.1-11.9-17.1c2.1.5 4.3.8 6.4.8 2.9 0 5.8-.4 8.8-1.2-7.8-1.6-14.3-5.6-19.5-11.9-5.2-6.3-7.8-13.6-7.8-21.9v-.4c4.8 2.7 10.1 4 15.7 4-10.2-6.6-15.3-16.2-15.3-28.5 0-6.2 1.6-11.9 4.8-17.3 8.3 10.7 18.5 19.2 30.6 25.5 12.1 6.3 25.1 9.9 39 10.7-.5-2.6-.8-5.3-.8-8 0-9.4 3.3-17.5 9.9-24.3 6.5-6.9 14.5-10.3 23.9-10.3 9.6 0 17.8 3.8 24.5 11.3 7.8-1.6 15-4.4 21.7-8.4-2.7 8-7.7 14.3-14.9 18.9 6.7-.8 13.1-2.5 19.3-5.2-4.6 7-10.2 12.9-16.7 17.6z"/></svg>