<?xml version="1.0" encoding="utf-8"?>
<!-- Generator: Adobe Illustrator 16.0.0, SVG Export Plug-In . SVG Version: 6.00 Build 0)  -->
<!DOCTYPE svg PUBLIC "-//W3C//DTD SVG 1.0//EN" "http://www.w3.org/TR/2001/REC-SVG-20010904/DTD/svg10.dtd">
<svg version="1.0" id="Layer_1" xmlns="http://www.w3.org/2000/svg" xmlns:xlink="http://www.w3.org/1999/xlink" x="0px" y="0px"
	 width="256px" height="256px" viewBox="0 0 256 256" style="enable-background:new 0 0 256 256;" xml:space="preserve">
<style type="text/css">
<![CDATA[
	.st0{fill:#FFFFFF;}
	.st1{fill:#6D6E70;}
]]>
</style>
<path class="st1" d="M255.38,128c0,70.36-57.03,127.38-127.38,127.38C57.65,255.38,0.62,198.36,0.62,128
	C0.62,57.65,57.65,0.62,128,0.62C198.35,0.62,255.38,57.65,255.38,128z"/>
<path class="st0" d="M210.35,76.25c-6.2,2.7-12.6,4.4-19.3,5.2c7.2-4.6,12.2-10.9,14.9-18.9c-6.7,4-13.9,6.8-21.7,8.4
	c-6.7-7.5-14.9-11.3-24.5-11.3c-9.4,0-17.4,3.4-23.9,10.3c-6.6,6.8-9.9,14.9-9.9,24.3c0,2.7,0.3,5.4,0.8,8
	c-13.9-0.8-26.9-4.4-39-10.7c-12.1-6.3-22.3-14.8-30.6-25.5c-3.2,5.4-4.8,11.1-4.8,17.3c0,12.3,5.1,21.9,15.3,28.5
	c-5.6,0-10.9-1.3-15.7-4v0.4c0,8.3,2.6,15.6,7.8,21.9c5.2,6.3,11.7,10.3,19.5,11.9c-3,0.8-5.9,1.2-8.8,1.2c-2.1,0-4.3-0.3-6.4-0.8
	c2.1,7,6.1,12.7,11.9,17.1c5.8,4.4,12.4,6.8,19.9,7c-12.3,9.6-26.4,14.5-42.2,14.5c-2.7,0-5.4-0.1-8-0.4
	c15.8,10.5,33.1,15.7,51.9,15.7c15,0,28.7-2.9,41.2-8.8s22.6-13.6,30.4-23.1c7.8-9.5,13.8-20,18.1-31.6c4.3-11.5,6.4-23,6.4-34.6
	v-4.4C200.15,89.15,205.85,83.25,210.35,76.25L210.35,76.25z"/>
</svg>
