<svg xmlns="http://www.w3.org/2000/svg" width="262.1" height="139.9"><style type="text/css"><![CDATA[
	.st0{fill:#F1F1F2;}
	.st1{fill:#3EA755;}
]]></style><path class="st1" d="M1.4 0v124.80000000000001s72.6 34 149.8 0c0 0 48.6-23.2 110.9-5.5v-119.3h-260.7z"/><path class="st0" d="M112.9 97.3s-33 20.8-45.7-9.9c0 0-10.8-33.3 16.2-50.2 0 0 23.2-6 24.8-14.6 0 0 19.6 29.2-19 48.9 0 0-21.6 11.7-9.2 25.8-.1 0 7.2 9.6 32.9 0z"/><path class="st0" d="M20.2 15.2h.8c2.2.5 3.3 1.5 3.3 3v23c4.6-4.2 9.6-6.2 14.9-6.2 8.1 0 14.5 4 19.4 11.9 1.8 3.5 2.7 6.9 2.7 10v26.3c0 1.9-1.2 3-3.5 3.4h-.1c-1.7 0-2.9-1.1-3.5-3.4v-25.3c0-6.8-3.4-11.7-10.1-14.7-1.6-.5-3.3-.7-4.9-.7-6.7 0-11.4 3.7-14.2 11.1-.5 1.6-.7 4.2-.7 7.9v21.6c0 1.9-1.2 3-3.5 3.4h-.1c-1.7 0-2.9-1.1-3.5-3.4v-64.4c.4-2.4 1.5-3.5 3-3.5z"/><path class="st0" d="M121 35.1c2.3.6 3.5 1.7 3.5 3.2v4.1c5.3-4.9 10.9-7.3 17-7.3 3.2 0 6.7.8 10.3 2.4 1 1 1.4 2 1.4 3v.2c-.4 2.4-1.5 3.5-3.4 3.5h-.2c-3.3-1.1-5.8-1.6-7.4-1.6h-1.1c-7.1 0-12.3 3.8-15.6 11.4-.7 2-1.1 4.3-1.1 6.9v22.1c0 1.9-1.2 3-3.5 3.4h-.2c-1.8 0-3-1.2-3.4-3.7v-43.3c.4-2.9 1.6-4.3 3.7-4.3z"/><path class="st0" d="M159.9 15.1h.5c2.2.5 3.3 1.6 3.3 3.2v24.5c5.3-5.3 11.2-7.9 17.8-7.9 6.4 0 12.2 2.5 17.4 7.5 5 5.4 7.4 11.5 7.4 18.3 0 9.7-4.4 17.3-13.3 22.8-3.8 2-7.5 3-11 3h-1.4c-6.7 0-12.9-3.3-18.7-9.8-3.5-4.9-5.3-10.7-5.3-17.4v-41c.1-1.7 1.2-2.7 3.3-3.2zm3.8 45v.9c0 7.7 3.9 13.4 11.6 17.2 2.1.6 4 .9 5.6.9h1.1c7.2 0 12.6-4 16.3-12.1.6-2.4.9-4.3.9-5.6v-1.1c0-7.7-3.9-13.4-11.8-17.2-2.4-.6-4.3-1-5.6-1h-.7c-7.2 0-12.6 4-16.3 11.9-.7 2.3-1.1 4.3-1.1 6.1z"/><path class="st0" d="M229.7 35.8c8.2 0 14.7 3.9 19.4 11.6l.1 1.4v.2c0 2-1.2 3.1-3.6 3.5-1.6 0-3.2-1.4-4.8-4.2-3.3-3.3-7-5-11.2-5-5.5 0-9.8 2.7-13 8.1l-.1.9c0 1.6 1.8 2.6 5.3 2.9 13.6 3.4 21.1 5.4 22.4 5.9 3.4 2.3 5.1 5.3 5.1 8.9v.1c0 5.1-3.6 9.8-10.9 14.1-3.1 1.5-6.4 2.2-9.9 2.2-7.2 0-13.3-3.5-18.3-10.5-.5-.7-.7-1.4-.7-2v-1.1c0-1.8 1.3-2.8 3.9-3.1 1.1 0 2.7 1.5 4.8 4.6 3.2 3.1 6.8 4.6 11 4.6 5 0 9.1-2.5 12.4-7.4l.3-1.1v-.2c0-1.6-1.1-2.5-3.2-2.7-15.9-3.7-24.3-6-25.3-6.8-3-2.3-4.4-5.2-4.4-8.5 0-4.7 3.2-9.1 9.7-13.5 4-2 7.5-2.9 11-2.9z"/></svg>