<?xml version="1.0" encoding="utf-8"?>
<!-- Generator: Adobe Illustrator 16.0.0, SVG Export Plug-In . SVG Version: 6.00 Build 0)  -->
<!DOCTYPE svg PUBLIC "-//W3C//DTD SVG 1.1//EN" "http://www.w3.org/Graphics/SVG/1.1/DTD/svg11.dtd">
<svg version="1.1" id="Layer_1" xmlns="http://www.w3.org/2000/svg" xmlns:xlink="http://www.w3.org/1999/xlink" x="0px" y="0px"
	 width="67.333px" height="37px" viewBox="0 0 67.333 37" enable-background="new 0 0 67.333 37" xml:space="preserve">
<path fill="#FFFFFF" stroke="#231F20" stroke-width="0.6525" stroke-miterlimit="10" d="M1.625,1.384v29.454v1.077
	c0,0,17.856,8.327,36.828,0c0,0,11.96-5.681,27.255-1.338V1.384H1.625z"/>
<g>
	<path fill="#8DA13E" d="M27.631,25.838c0,0-6.559,5.123-9.506-2.432c0,0-2.506-8.195,3.759-12.358c0,0,5.379-1.472,5.748-3.585
		c0,0,4.549,7.184-4.422,12.037c0,0-5.011,2.881-2.137,6.338C21.072,25.838,21.662,28.208,27.631,25.838z"/>
	<path fill="#8DA13E" d="M7.226,8.465h0.16c0.484,0.1,0.726,0.313,0.726,0.641v4.924c1.032-0.89,2.136-1.335,3.311-1.335
		c1.794,0,3.229,0.848,4.305,2.542c0.406,0.755,0.609,1.467,0.609,2.136v5.64c0,0.399-0.256,0.641-0.769,0.726h-0.032
		c-0.384,0-0.641-0.242-0.769-0.726v-5.404c0-1.453-0.751-2.5-2.254-3.141c-0.363-0.106-0.726-0.16-1.089-0.16
		c-1.495,0-2.545,0.794-3.151,2.382c-0.106,0.342-0.16,0.904-0.16,1.688v4.636c0,0.399-0.256,0.641-0.769,0.726H7.312
		c-0.385,0-0.641-0.242-0.77-0.726V9.223C6.649,8.718,6.877,8.465,7.226,8.465z"/>
	<path fill="#8DA13E" d="M30.489,12.727c0.513,0.128,0.77,0.356,0.77,0.684v0.886c1.175-1.046,2.432-1.57,3.77-1.57
		c0.719,0,1.484,0.174,2.297,0.523c0.214,0.221,0.32,0.434,0.32,0.641v0.043c-0.086,0.505-0.339,0.758-0.759,0.758h-0.043
		c-0.733-0.235-1.285-0.353-1.655-0.353h-0.235c-1.573,0-2.727,0.815-3.46,2.446c-0.157,0.435-0.235,0.929-0.235,1.485v4.742
		c0,0.399-0.256,0.641-0.77,0.726h-0.042c-0.406,0-0.659-0.267-0.758-0.801v-9.282C29.752,13.036,30.019,12.727,30.489,12.727z"/>
	<path fill="#8DA13E" d="M40.017,8.443h0.117c0.484,0.107,0.727,0.338,0.727,0.694v5.244c1.175-1.132,2.496-1.698,3.963-1.698
		c1.417,0,2.706,0.538,3.866,1.613c1.104,1.161,1.655,2.464,1.655,3.909c0,2.072-0.982,3.703-2.947,4.892
		c-0.848,0.427-1.667,0.641-2.457,0.641h-0.32c-1.488,0-2.873-0.698-4.154-2.093c-0.784-1.047-1.176-2.286-1.176-3.717V9.138
		C39.29,8.782,39.532,8.55,40.017,8.443z M40.86,18.088v0.203c0,1.645,0.861,2.869,2.585,3.674c0.463,0.135,0.879,0.203,1.25,0.203
		h0.245c1.603,0,2.812-0.861,3.632-2.585c0.135-0.52,0.203-0.922,0.203-1.207v-0.246c0-1.637-0.876-2.862-2.628-3.674
		c-0.534-0.135-0.951-0.203-1.25-0.203h-0.16c-1.602,0-2.812,0.847-3.631,2.542C40.942,17.273,40.86,17.704,40.86,18.088z"/>
	<path fill="#8DA13E" d="M56.401,12.876c1.83,0,3.269,0.83,4.315,2.489l0.032,0.31v0.043c0,0.42-0.264,0.669-0.791,0.748
		c-0.349,0-0.705-0.303-1.068-0.908c-0.733-0.712-1.562-1.068-2.488-1.068c-1.218,0-2.179,0.581-2.884,1.741l-0.032,0.203
		c0,0.349,0.396,0.559,1.186,0.63c3.033,0.733,4.692,1.153,4.978,1.26c0.762,0.499,1.143,1.132,1.143,1.901v0.032
		c0,1.097-0.805,2.101-2.414,3.012c-0.69,0.313-1.428,0.47-2.211,0.47c-1.602,0-2.958-0.751-4.069-2.253
		c-0.106-0.157-0.16-0.302-0.16-0.438v-0.235c0-0.385,0.292-0.609,0.876-0.673c0.249,0,0.605,0.331,1.068,0.993
		c0.705,0.655,1.52,0.983,2.445,0.983c1.111,0,2.033-0.527,2.767-1.581l0.075-0.235v-0.043c0-0.342-0.235-0.537-0.705-0.587
		c-3.539-0.79-5.412-1.278-5.618-1.463c-0.655-0.498-0.982-1.104-0.982-1.815c0-0.997,0.723-1.958,2.168-2.884
		C54.828,13.086,55.618,12.876,56.401,12.876z"/>
</g>
</svg>
