<?xml version="1.0" encoding="utf-8"?>
<!-- Generator: Adobe Illustrator 16.0.0, SVG Export Plug-In . SVG Version: 6.00 Build 0)  -->
<!DOCTYPE svg PUBLIC "-//W3C//DTD SVG 1.1//EN" "http://www.w3.org/Graphics/SVG/1.1/DTD/svg11.dtd">
<svg version="1.1" id="Layer_1" xmlns="http://www.w3.org/2000/svg" xmlns:xlink="http://www.w3.org/1999/xlink" x="0px" y="0px"
	 width="343.462px" height="185.087px" viewBox="-0.104 -0.347 343.462 185.087"
	 enable-background="new -0.104 -0.347 343.462 185.087" xml:space="preserve">
<g>
	<path fill="#FFFFFF" d="M1.627,1.384v156.274v5.715c0,0,94.738,44.182,195.399,0c0,0,63.45-30.14,144.601-7.098V1.384H1.627z"/>
	<path fill="#231F20" d="M101.629,184.74c-57.608,0-100.309-19.601-100.733-19.799l-1-0.466V-0.347h343.462v158.914l-2.204-0.626
		c-20.124-5.714-40.925-8.611-61.824-8.611c-48.146,0-81.232,15.451-81.561,15.607C167.816,178.085,135.485,184.74,101.629,184.74z
		 M3.358,162.247c6.702,2.901,46.315,19.031,98.271,19.031c33.374,0,65.236-6.558,94.702-19.49
		c0.288-0.138,34.081-15.921,82.999-15.921c20.458,0,40.82,2.734,60.565,8.129V3.115H3.358V162.247z"/>
</g>
<g>
	<g>
		<path fill="#8DA13E" d="M139.607,131.13c0,0-34.801,27.182-50.436-12.901c0,0-13.295-43.482,19.943-65.57
			c0,0,28.541-7.808,30.497-19.021c0,0,24.138,38.116-23.461,63.865c0,0-26.586,15.285-11.337,33.627
			C104.806,131.13,107.938,143.705,139.607,131.13z"/>
	</g>
	<g>
		<path fill="#8DA13E" d="M31.345,38.954h0.85c2.567,0.53,3.85,1.66,3.85,3.401v26.127c5.477-4.723,11.334-7.086,17.567-7.086
			c9.519,0,17.132,4.5,22.842,13.487c2.153,4.008,3.23,7.785,3.23,11.334v29.928c0,2.114-1.357,3.398-4.08,3.85h-0.168
			c-2.039,0-3.402-1.285-4.081-3.85V87.47c0-7.708-3.984-13.265-11.958-16.666c-1.928-0.562-3.853-0.848-5.78-0.848
			c-7.93,0-13.502,4.213-16.717,12.638c-0.562,1.816-0.851,4.795-0.851,8.956v24.596c0,2.119-1.357,3.404-4.08,3.854h-0.168
			c-2.044,0-3.401-1.284-4.085-3.854V42.977C28.283,40.296,29.493,38.954,31.345,38.954z"/>
	</g>
	<g>
		<path fill="#8DA13E" d="M154.77,61.567c2.723,0.679,4.085,1.889,4.085,3.63v4.699c6.236-5.549,12.904-8.329,20-8.329
			c3.819,0,7.876,0.923,12.192,2.775c1.129,1.173,1.694,2.303,1.694,3.401v0.228c-0.456,2.679-1.798,4.021-4.026,4.021h-0.228
			c-3.892-1.246-6.819-1.873-8.782-1.873h-1.249c-8.342,0-14.464,4.324-18.353,12.979c-0.834,2.306-1.249,4.928-1.249,7.878v25.158
			c0,2.119-1.357,3.399-4.085,3.855h-0.223c-2.153,0-3.495-1.42-4.021-4.249V66.492C150.861,63.208,152.278,61.567,154.77,61.567z"
			/>
	</g>
	<g>
		<path fill="#8DA13E" d="M205.322,38.837h0.616c2.57,0.567,3.86,1.796,3.86,3.685v27.821c6.233-6.006,13.243-9.008,21.031-9.008
			c7.513,0,14.353,2.854,20.508,8.557c5.854,6.16,8.782,13.072,8.782,20.741c0,10.994-5.213,19.647-15.638,25.958
			c-4.502,2.26-8.844,3.399-13.036,3.399h-1.694c-7.896,0-15.243-3.705-22.041-11.109c-4.161-5.554-6.238-12.124-6.238-19.72V42.526
			C201.461,40.638,202.747,39.404,205.322,38.837z M209.793,90.011v1.078c0,8.725,4.569,15.223,13.715,19.492
			c2.461,0.715,4.668,1.077,6.632,1.077h1.301c8.508,0,14.922-4.569,19.27-13.715c0.72-2.762,1.077-4.892,1.077-6.404v-1.306
			c0-8.684-4.647-15.184-13.942-19.492c-2.834-0.718-5.047-1.077-6.632-1.077h-0.851c-8.497,0-14.922,4.494-19.264,13.486
			C210.228,85.687,209.793,87.975,209.793,90.011z"/>
	</g>
	<g>
		<path fill="#8DA13E" d="M292.25,62.357c9.71,0,17.347,4.404,22.891,13.208l0.177,1.643v0.228c0,2.23-1.404,3.552-4.197,3.969
			c-1.854,0-3.741-1.606-5.668-4.815c-3.887-3.777-8.291-5.666-13.202-5.666c-6.462,0-11.56,3.08-15.301,9.235l-0.171,1.078
			c0,1.853,2.104,2.966,6.29,3.342c16.093,3.889,24.896,6.116,26.414,6.687c4.042,2.647,6.062,6.005,6.062,10.083v0.171
			c0,5.818-4.27,11.146-12.809,15.984c-3.657,1.658-7.575,2.492-11.73,2.492c-8.497,0-15.688-3.984-21.585-11.953
			c-0.56-0.834-0.85-1.606-0.85-2.326v-1.249c0-2.042,1.549-3.229,4.647-3.564c1.321,0,3.207,1.751,5.663,5.264
			c3.741,3.477,8.067,5.218,12.974,5.218c5.896,0,10.788-2.798,14.685-8.389l0.394-1.249v-0.228c0-1.813-1.243-2.85-3.741-3.114
			c-18.777-4.191-28.715-6.779-29.803-7.762c-3.477-2.643-5.213-5.857-5.213-9.629c0-5.29,3.835-10.389,11.503-15.304
			C283.907,63.472,288.094,62.357,292.25,62.357z"/>
	</g>
</g>
</svg>
