<?xml version="1.0" encoding="utf-8"?>
<!-- Generator: Adobe Illustrator 16.0.0, SVG Export Plug-In . SVG Version: 6.00 Build 0)  -->
<!DOCTYPE svg PUBLIC "-//W3C//DTD SVG 1.1//EN" "http://www.w3.org/Graphics/SVG/1.1/DTD/svg11.dtd">
<svg version="1.1" id="Layer_1" xmlns="http://www.w3.org/2000/svg" xmlns:xlink="http://www.w3.org/1999/xlink" x="0px" y="0px"
	 width="256px" height="256px" viewBox="0 0 256 256" enable-background="new 0 0 256 256" xml:space="preserve">
<path fill="#6D6E70" d="M255.382,128c0,70.355-57.03,127.381-127.381,127.381C57.649,255.381,0.618,198.355,0.618,128
	C0.618,57.648,57.65,0.619,128.001,0.619C198.352,0.619,255.382,57.648,255.382,128z"/>
<path fill="#FFFFFF" d="M170.953,101.65h-34.648V87.214c0-4.089,0.539-7.039,1.621-8.844c1.084-1.806,3.432-2.707,7.039-2.707
	h25.988V47.147h-31.762c-13.24,0-22.805,3.129-28.696,9.385c-5.901,6.26-8.846,15.521-8.846,27.793v17.325H85.046v26.351h16.604
	v80.853h34.655v-80.853h29.955L170.953,101.65z"/>
</svg>
