<?xml version="1.0" encoding="utf-8"?>
<!-- Generator: Adobe Illustrator 16.0.0, SVG Export Plug-In . SVG Version: 6.00 Build 0)  -->
<!DOCTYPE svg PUBLIC "-//W3C//DTD SVG 1.1//EN" "http://www.w3.org/Graphics/SVG/1.1/DTD/svg11.dtd">
<svg version="1.1" id="Layer_1" xmlns="http://www.w3.org/2000/svg" xmlns:xlink="http://www.w3.org/1999/xlink" x="0px" y="0px"
	 width="256px" height="256px" viewBox="0 0 256 256" enable-background="new 0 0 256 256" xml:space="preserve">
<path fill="#403028" d="M254.382,127c0,70.355-57.03,127.381-127.381,127.381C56.649,254.381-0.382,197.355-0.382,127
	c0-70.352,57.032-127.381,127.383-127.381C197.352-0.381,254.382,56.648,254.382,127z"/>
<g>
	<polygon id="Plus" fill="#FFFFFF" points="212.85,86.15 185.85,86.15 185.85,56.15 177.85,56.15 177.85,86.15 148.85,86.15 
		148.85,93.15 177.85,93.15 177.85,120.15 185.85,120.15 185.85,93.15 212.85,93.15 	"/>
	<path id="g" fill="#FFFFFF" d="M117.05,138.949c-4-2.799-11.7-9.799-11.7-13.799c0-4.8,1.4-7.1,8.5-12.7c7.3-5.7,12.5-13,12.5-22.4
		c0-11.2-5-22.9-14.3-24.9h14.1l9.901-9H91.65c-19.9,0-38.7,15.2-38.7,32.7c0,17.9,13.6,32.3,33.8,32.3c1.4,0,2.8,0,4.1-0.1
		c-1.3,2.5-2.3,5.4-2.3,8.3c0,5,2.7,9,6,12.301c-2.6,0-5,0.1-7.7,0.1c-24.7,0-43.7,15.699-43.7,32c0,16,20.8,26.1,45.5,26.1
		c28.1,0,43.7-16,43.7-32C132.551,154.949,128.75,147.25,117.05,138.949L117.05,138.949z M93.35,116.65
		c-11.4-0.3-22.3-12.8-24.3-27.8s5.7-26.5,17.1-26.2c11.4,0.3,22.3,12.4,24.3,27.4C112.45,105.15,104.75,117.05,93.35,116.65z
		 M88.85,192.75c-17.1,0-29.4-10.801-29.4-23.801c0-12.699,15.3-23.299,32.3-23.1c4,0,7.7,0.701,11.1,1.801
		c9.3,6.4,15.9,10.1,17.8,17.4c0.4,1.5,0.5,3,0.5,4.6C121.15,182.65,112.85,192.75,88.85,192.75L88.85,192.75z"/>
</g>
</svg>
