<?xml version="1.0" encoding="utf-8"?>
<!-- Generator: Adobe Illustrator 16.0.0, SVG Export Plug-In . SVG Version: 6.00 Build 0)  -->
<!DOCTYPE svg PUBLIC "-//W3C//DTD SVG 1.1//EN" "http://www.w3.org/Graphics/SVG/1.1/DTD/svg11.dtd">
<svg version="1.1" id="Layer_1" xmlns="http://www.w3.org/2000/svg" xmlns:xlink="http://www.w3.org/1999/xlink" x="0px" y="0px"
	 width="256px" height="256px" viewBox="0 0 256 256" enable-background="new 0 0 256 256" xml:space="preserve">
<path fill="#6D6E70" d="M255.382,128c0,70.355-57.03,127.381-127.381,127.381C57.649,255.381,0.618,198.355,0.618,128
	C0.618,57.648,57.65,0.619,128.001,0.619C198.352,0.619,255.382,57.648,255.382,128z"/>
<path fill="#FFFFFF" d="M180.583,144.244c10.2-15.7,13.899-33.4,11.301-53.2c-2.301-16-10.5-28.1-24.399-36.4
	c-13.899-8.3-29.899-11.399-47.898-9.399c-14.6,1.8-27.5,8-38.8,18.6c-11.3,10.6-17.1,23.6-17.4,39c-0.9,21.8,6.8,34.601,23.1,38.4
	c2-3.2,3.1-6.2,3.1-8.9c0-2.8-0.4-4.9-1.3-6.3c-0.9-1.5-2-3.3-3.3-5.7c-1.3-2.3-2.3-4.6-2.8-7c-1.5-9.9,0.4-19.2,5.4-27.9
	c5.1-8.7,11.8-15.3,20-19.6c8.3-4.4,17.4-6.2,27.199-5.4c9.898,0.7,18.3,4.6,25.3,11.5c4.603,4.9,7.5,12.1,8.7,21.6
	c1.199,9.4,0.601,18.5-1.7,27c-2.3,8.6-6.5,15.8-12.397,21.6c-6,5.801-12.701,8-20.302,6.5c-5.801-1.199-9.3-3.897-10.5-8.3
	c-1.2-4.399-0.9-9.399,0.9-15c1.7-5.7,3.6-11.3,5.399-17c1.898-5.7,2.601-10.9,2.199-15.7c-0.4-4.8-3-8.1-7.6-9.8
	c-6.4-2.6-11.9-1.5-16.6,3.3c-4.6,4.8-7.3,10.7-7.8,17.6c-0.6,7,0.4,13.4,3.1,19.2c-0.9,4.9-2.5,11.8-4.8,20.7
	c-2.3,8.9-4.1,15.801-5.2,20.9c-1.2,5.1-2.3,12.5-3.5,22.2c-1.2,9.7-0.9,17.899,0.9,24.601c7.3-5.201,12.6-12.4,16.1-21.601
	c3.5-9.201,6.7-20.7,9.6-34.601c0.6,0.301,2.6,1.698,6.1,4.101c3.5,2.5,6.2,4.1,8.299,4.8c2,0.7,4.6,1.2,7.8,1.5
	C156.482,167.044,170.384,159.943,180.583,144.244z"/>
</svg>
