<?xml version="1.0" encoding="utf-8"?>
<!-- Generator: Adobe Illustrator 16.0.0, SVG Export Plug-In . SVG Version: 6.00 Build 0)  -->
<!DOCTYPE svg PUBLIC "-//W3C//DTD SVG 1.1//EN" "http://www.w3.org/Graphics/SVG/1.1/DTD/svg11.dtd">
<svg version="1.1" id="Layer_1" xmlns="http://www.w3.org/2000/svg" xmlns:xlink="http://www.w3.org/1999/xlink" x="0px" y="0px"
	 width="256px" height="256px" viewBox="0 0 256 256" enable-background="new 0 0 256 256" xml:space="preserve">
<path fill="#6D6E70" d="M255.382,128c0,70.355-57.03,127.381-127.381,127.381C57.649,255.381,0.618,198.355,0.618,128
	C0.618,57.648,57.65,0.619,128.001,0.619C198.352,0.619,255.382,57.648,255.382,128z"/>
<path fill="#FFFFFF" d="M210.35,76.25c-6.199,2.7-12.6,4.4-19.301,5.2c7.201-4.6,12.201-10.9,14.9-18.9
	c-6.699,4-13.9,6.8-21.699,8.4c-6.701-7.5-14.9-11.3-24.5-11.3c-9.4,0-17.4,3.4-23.9,10.3c-6.6,6.8-9.898,14.9-9.898,24.3
	c0,2.7,0.3,5.4,0.8,8c-13.9-0.8-26.9-4.4-39-10.7c-12.1-6.3-22.3-14.8-30.6-25.5c-3.2,5.4-4.8,11.1-4.8,17.3
	c0,12.3,5.1,21.9,15.3,28.5c-5.6,0-10.9-1.3-15.7-4v0.4c0,8.3,2.6,15.6,7.8,21.9c5.2,6.299,11.7,10.299,19.5,11.898
	c-3,0.801-5.9,1.199-8.8,1.199c-2.1,0-4.3-0.301-6.4-0.801c2.1,7,6.1,12.699,11.9,17.102c5.8,4.398,12.4,6.801,19.9,7
	c-12.3,9.602-26.4,14.5-42.2,14.5c-2.7,0-5.4-0.102-8-0.398c15.8,10.5,33.1,15.699,51.9,15.699c15,0,28.7-2.9,41.2-8.801
	s22.601-13.602,30.399-23.102c7.8-9.5,13.8-20,18.101-31.602c4.299-11.5,6.399-23,6.399-34.6v-4.4
	C200.15,89.15,205.85,83.25,210.35,76.25L210.35,76.25z"/>
</svg>
