<?xml version="1.0" encoding="utf-8"?>
<!-- Generator: Adobe Illustrator 16.0.0, SVG Export Plug-In . SVG Version: 6.00 Build 0)  -->
<!DOCTYPE svg PUBLIC "-//W3C//DTD SVG 1.1//EN" "http://www.w3.org/Graphics/SVG/1.1/DTD/svg11.dtd">
<svg version="1.1" id="Layer_1" xmlns="http://www.w3.org/2000/svg" xmlns:xlink="http://www.w3.org/1999/xlink" x="0px" y="0px"
	 width="256px" height="256px" viewBox="0 0 256 256" enable-background="new 0 0 256 256" xml:space="preserve">
<g>
	<path fill="#8CA03D" d="M249.875,51.298c0,13.696-9.165,24.798-20.471,24.798H26.596c-11.306,0-20.471-11.103-20.471-24.798l0,0
		c0-13.696,9.165-24.798,20.471-24.798h202.808C240.71,26.5,249.875,37.603,249.875,51.298L249.875,51.298z"/>
	<g>
		<path fill="#8CA03D" d="M249.875,128c0,13.695-9.165,24.798-20.471,24.798H26.596c-11.306,0-20.471-11.103-20.471-24.798l0,0
			c0-13.696,9.165-24.798,20.471-24.798h202.808C240.71,103.202,249.875,114.304,249.875,128L249.875,128z"/>
	</g>
	<g>
		<path fill="#8CA03D" d="M249.875,204.702c0,13.695-9.165,24.798-20.471,24.798H26.596c-11.306,0-20.471-11.103-20.471-24.798l0,0
			c0-13.696,9.165-24.799,20.471-24.799h202.808C240.71,179.903,249.875,191.006,249.875,204.702L249.875,204.702z"/>
	</g>
</g>
</svg>
