<svg version="1" xmlns="http://www.w3.org/2000/svg" width="262.1" height="139.9"><style type="text/css"><![CDATA[
	.st0{fill:#F1F1F2;}
	.st1{fill:#3EA755;}
]]></style><path class="st1" d="M0 0v124.8s73 34 150.6 0c0 0 48.9-23.2 111.5-5.5v-119.3h-262.1z"/><path class="st0" d="M19.9 40.7c2.3.6 3.5 1.6 3.5 3.1v19.6c0 8.4 2.4 14 7.1 16.8 3 2.3 6.4 3.5 10.1 3.5 7.1 0 12.5-3.7 16.1-11 .7-2.4 1.1-4.8 1.1-7.1v-21.2c.5-2.4 1.7-3.7 3.7-3.7 2.3.5 3.5 1.7 3.5 3.5v43.6c0 1.6-1.2 2.7-3.5 3.1h-.2c-2.3-.4-3.5-1.6-3.5-3.5v-3.5h-.2c-5.1 4.6-10.6 6.9-16.5 6.9h-1.3c-7.6 0-14.2-3.7-19.8-11.2-2.6-4-3.9-8.9-3.9-14.8v-20c.4-2.7 1.6-4.1 3.8-4.1z"/><path class="st0" d="M72.5 21h.7c2.2.5 3.3 1.4 3.3 2.9v22.5c4.7-4.1 9.8-6.1 15.1-6.1 8.2 0 14.8 3.9 19.7 11.6 1.9 3.5 2.8 6.7 2.8 9.8v25.8c0 1.8-1.2 2.9-3.5 3.3h-.1c-1.8 0-2.9-1.1-3.5-3.3v-24.7c0-6.6-3.4-11.4-10.3-14.4-1.7-.5-3.3-.7-5-.7-6.8 0-11.6 3.6-14.4 10.9-.5 1.6-.7 4.1-.7 7.7v21.2c0 1.8-1.2 2.9-3.5 3.3h-.1c-1.8 0-2.9-1.1-3.5-3.3v-63c.3-2.3 1.4-3.5 3-3.5z"/><path class="st0" d="M122.2 59.2h16.8c1.7 0 2.7 1.3 3.2 3.9-.5 2.5-1.6 3.7-3.2 3.7h-16.8c-1.8 0-2.9-1.4-3.2-4.1.6-2.3 1.7-3.5 3.2-3.5z"/><path class="st0" d="M172.1 41.1c6.4 0 12.2 2.4 17.4 7.3 4.9 5.2 7.4 11.1 7.4 17.6 0 9.3-4.4 16.6-13.2 22-3.8 1.9-7.5 2.9-11.1 2.9h-1.5c-6.7 0-12.9-3.1-18.7-9.4-3.5-5-5.3-10.1-5.3-15.4 0-8.1 3.6-14.8 10.7-20.3 4.7-3.1 9.5-4.7 14.3-4.7zm-17.5 24.4v.9c0 6.6 3.2 11.8 9.6 15.4 2.3 1.2 4.8 1.8 7.4 1.8h1.1c6.9 0 12.1-3.6 15.8-10.7.8-2.2 1.3-4.4 1.3-6.5v-.9c0-5.5-2.5-10.2-7.6-14-3-2.1-6.3-3.1-10.2-3.1-7.5 0-13 3.9-16.5 11.8-.6 1.9-.9 3.7-.9 5.3z"/><path class="st0" d="M204.2 21h.7c2.2.5 3.3 1.4 3.3 2.9v22.5c4.7-4.1 9.8-6.1 15.1-6.1 8.2 0 14.8 3.9 19.7 11.6 1.9 3.5 2.8 6.7 2.8 9.8v25.8c0 1.8-1.2 2.9-3.5 3.3h-.1c-1.8 0-2.9-1.1-3.5-3.3v-24.7c0-6.6-3.4-11.4-10.3-14.4-1.7-.5-3.3-.7-5-.7-6.8 0-11.6 3.6-14.4 10.9-.5 1.6-.7 4.1-.7 7.7v21.2c0 1.8-1.2 2.9-3.5 3.3h-.1c-1.8 0-2.9-1.1-3.5-3.3v-63c.4-2.3 1.4-3.5 3-3.5z"/></svg>